<mxfile host="app.diagrams.net" modified="2021-11-24T03:56:15.688Z" agent="5.0 (X11; Linux x86_64) AppleWebKit/537.36 (KHTML, like Gecko) Chrome/95.0.4638.69 Safari/537.36" etag="fMeZpJmkW6ILwEaSzQRa" version="14.9.8" type="github">
  <diagram name="Page-1" id="74e2e168-ea6b-b213-b513-2b3c1d86103e">
    <mxGraphModel dx="1209" dy="638" grid="1" gridSize="10" guides="1" tooltips="1" connect="1" arrows="1" fold="1" page="1" pageScale="1" pageWidth="1100" pageHeight="850" background="none" math="0" shadow="0">
      <root>
        <mxCell id="0" />
        <mxCell id="1" parent="0" />
        <mxCell id="77e6c97f196da883-1" value="&lt;font style=&quot;font-size: 15px&quot;&gt;DOKTO SYSTEM&lt;/font&gt;" style="swimlane;html=1;childLayout=stackLayout;startSize=20;rounded=0;shadow=0;labelBackgroundColor=none;strokeWidth=1;fontFamily=Verdana;fontSize=8;align=center;" parent="1" vertex="1">
          <mxGeometry x="70" y="40" width="960" height="750" as="geometry" />
        </mxCell>
        <mxCell id="77e6c97f196da883-2" value="Static Pages" style="swimlane;html=1;startSize=20;" parent="77e6c97f196da883-1" vertex="1">
          <mxGeometry y="20" width="160" height="730" as="geometry" />
        </mxCell>
        <mxCell id="jQUbzYPPH5g8hpw0QfmZ-1" value="" style="edgeStyle=orthogonalEdgeStyle;rounded=0;orthogonalLoop=1;jettySize=auto;html=1;" edge="1" parent="77e6c97f196da883-2" source="77e6c97f196da883-8" target="77e6c97f196da883-9">
          <mxGeometry relative="1" as="geometry" />
        </mxCell>
        <mxCell id="77e6c97f196da883-8" value="&lt;p style=&quot;line-height: 270%&quot;&gt;&lt;font style=&quot;font-size: 18px&quot;&gt;HOME&lt;/font&gt;&lt;/p&gt;" style="rounded=1;whiteSpace=wrap;html=1;shadow=0;labelBackgroundColor=none;strokeWidth=1;fontFamily=Verdana;fontSize=8;align=center;" parent="77e6c97f196da883-2" vertex="1">
          <mxGeometry x="20" y="65" width="100" height="60" as="geometry" />
        </mxCell>
        <mxCell id="77e6c97f196da883-9" value="&lt;font style=&quot;font-size: 15px&quot;&gt;How it Works&lt;/font&gt;" style="rounded=1;whiteSpace=wrap;html=1;shadow=0;labelBackgroundColor=none;strokeWidth=1;fontFamily=Verdana;fontSize=8;align=center;" parent="77e6c97f196da883-2" vertex="1">
          <mxGeometry x="20" y="155" width="100" height="60" as="geometry" />
        </mxCell>
        <mxCell id="jQUbzYPPH5g8hpw0QfmZ-2" value="&lt;font style=&quot;font-size: 15px&quot;&gt;Available&lt;br&gt;Care&lt;br&gt;&lt;/font&gt;" style="rounded=1;whiteSpace=wrap;html=1;shadow=0;labelBackgroundColor=none;strokeWidth=1;fontFamily=Verdana;fontSize=8;align=center;" vertex="1" parent="77e6c97f196da883-2">
          <mxGeometry x="20" y="240" width="100" height="60" as="geometry" />
        </mxCell>
        <mxCell id="jQUbzYPPH5g8hpw0QfmZ-3" value="&lt;font style=&quot;font-size: 15px&quot;&gt;About&amp;nbsp;&lt;br&gt;Us&lt;br&gt;&lt;/font&gt;" style="rounded=1;whiteSpace=wrap;html=1;shadow=0;labelBackgroundColor=none;strokeWidth=1;fontFamily=Verdana;fontSize=8;align=center;" vertex="1" parent="77e6c97f196da883-2">
          <mxGeometry x="20" y="320" width="100" height="60" as="geometry" />
        </mxCell>
        <mxCell id="jQUbzYPPH5g8hpw0QfmZ-4" value="&lt;font style=&quot;font-size: 15px&quot;&gt;Useful Info&lt;br&gt;(1. FAQ&lt;br&gt;2. T&amp;amp;C&lt;br&gt;3. HIPAA&lt;br&gt;4. Privacy Policy)&lt;br&gt;&lt;/font&gt;" style="rounded=1;whiteSpace=wrap;html=1;shadow=0;labelBackgroundColor=none;strokeWidth=1;fontFamily=Verdana;fontSize=8;align=center;" vertex="1" parent="77e6c97f196da883-2">
          <mxGeometry x="20" y="400" width="100" height="120" as="geometry" />
        </mxCell>
        <mxCell id="jQUbzYPPH5g8hpw0QfmZ-5" value="&lt;font style=&quot;font-size: 15px&quot;&gt;Dokto News&lt;br&gt;&lt;/font&gt;" style="rounded=1;whiteSpace=wrap;html=1;shadow=0;labelBackgroundColor=none;strokeWidth=1;fontFamily=Verdana;fontSize=8;align=center;" vertex="1" parent="77e6c97f196da883-2">
          <mxGeometry x="20" y="540" width="100" height="60" as="geometry" />
        </mxCell>
        <mxCell id="77e6c97f196da883-26" style="edgeStyle=orthogonalEdgeStyle;rounded=1;html=1;labelBackgroundColor=none;startArrow=none;startFill=0;startSize=5;endArrow=classicThin;endFill=1;endSize=5;jettySize=auto;orthogonalLoop=1;strokeWidth=1;fontFamily=Verdana;fontSize=8" parent="77e6c97f196da883-1" source="77e6c97f196da883-8" target="77e6c97f196da883-11" edge="1">
          <mxGeometry relative="1" as="geometry" />
        </mxCell>
        <mxCell id="77e6c97f196da883-3" value="Login/Registration" style="swimlane;html=1;startSize=20;" parent="77e6c97f196da883-1" vertex="1">
          <mxGeometry x="160" y="20" width="160" height="730" as="geometry" />
        </mxCell>
        <mxCell id="77e6c97f196da883-11" value="&lt;font style=&quot;font-size: 16px&quot;&gt;LOGIN&lt;/font&gt;" style="rounded=1;whiteSpace=wrap;html=1;shadow=0;labelBackgroundColor=none;strokeWidth=1;fontFamily=Verdana;fontSize=8;align=center;" parent="77e6c97f196da883-3" vertex="1">
          <mxGeometry x="30" y="65" width="100" height="60" as="geometry" />
        </mxCell>
        <mxCell id="jQUbzYPPH5g8hpw0QfmZ-16" value="&lt;p style=&quot;line-height: 270%&quot;&gt;&lt;font style=&quot;font-size: 18px&quot;&gt;Patient&lt;/font&gt;&lt;/p&gt;&lt;p style=&quot;line-height: 270%&quot;&gt;&lt;font style=&quot;font-size: 18px&quot;&gt;Registration&lt;/font&gt;&lt;/p&gt;" style="rounded=1;whiteSpace=wrap;html=1;shadow=0;labelBackgroundColor=none;strokeWidth=1;fontFamily=Verdana;fontSize=8;align=center;" vertex="1" parent="77e6c97f196da883-3">
          <mxGeometry x="30" y="150" width="100" height="60" as="geometry" />
        </mxCell>
        <mxCell id="jQUbzYPPH5g8hpw0QfmZ-18" value="&lt;p style=&quot;line-height: 270%&quot;&gt;&lt;font style=&quot;font-size: 18px&quot;&gt;Provider&lt;/font&gt;&lt;/p&gt;&lt;p style=&quot;line-height: 270%&quot;&gt;&lt;font style=&quot;font-size: 18px&quot;&gt;Registration&lt;/font&gt;&lt;/p&gt;" style="rounded=1;whiteSpace=wrap;html=1;shadow=0;labelBackgroundColor=none;strokeWidth=1;fontFamily=Verdana;fontSize=8;align=center;" vertex="1" parent="77e6c97f196da883-3">
          <mxGeometry x="30" y="230" width="100" height="60" as="geometry" />
        </mxCell>
        <mxCell id="77e6c97f196da883-4" value="Lane 3" style="swimlane;html=1;startSize=20;" parent="77e6c97f196da883-1" vertex="1">
          <mxGeometry x="320" y="20" width="160" height="730" as="geometry" />
        </mxCell>
        <mxCell id="jQUbzYPPH5g8hpw0QfmZ-20" value="&lt;p style=&quot;line-height: 270%&quot;&gt;&lt;span style=&quot;font-size: 14px&quot;&gt;Clinic/Hospital&lt;/span&gt;&lt;/p&gt;&lt;p style=&quot;line-height: 270%&quot;&gt;&lt;font style=&quot;font-size: 15px&quot;&gt;Registration&lt;/font&gt;&lt;/p&gt;" style="rounded=1;whiteSpace=wrap;html=1;shadow=0;labelBackgroundColor=none;strokeWidth=1;fontFamily=Verdana;fontSize=8;align=center;" vertex="1" parent="77e6c97f196da883-4">
          <mxGeometry x="20" y="335" width="100" height="60" as="geometry" />
        </mxCell>
        <mxCell id="jQUbzYPPH5g8hpw0QfmZ-64" value="&lt;p style=&quot;line-height: 270%&quot;&gt;&lt;font style=&quot;font-size: 18px&quot;&gt;Doctor&lt;/font&gt;&lt;/p&gt;&lt;p style=&quot;line-height: 270%&quot;&gt;&lt;font style=&quot;font-size: 18px&quot;&gt;Registration&lt;/font&gt;&lt;/p&gt;" style="rounded=1;whiteSpace=wrap;html=1;shadow=0;labelBackgroundColor=none;strokeWidth=1;fontFamily=Verdana;fontSize=8;align=center;" vertex="1" parent="77e6c97f196da883-4">
          <mxGeometry x="20" y="260" width="100" height="60" as="geometry" />
        </mxCell>
        <mxCell id="jQUbzYPPH5g8hpw0QfmZ-65" value="&lt;p style=&quot;line-height: 270%&quot;&gt;&lt;font style=&quot;font-size: 18px&quot;&gt;Pharmacy&lt;/font&gt;&lt;/p&gt;&lt;p style=&quot;line-height: 270%&quot;&gt;&lt;font style=&quot;font-size: 18px&quot;&gt;Registration&lt;/font&gt;&lt;/p&gt;" style="rounded=1;whiteSpace=wrap;html=1;shadow=0;labelBackgroundColor=none;strokeWidth=1;fontFamily=Verdana;fontSize=8;align=center;" vertex="1" parent="77e6c97f196da883-4">
          <mxGeometry x="20" y="410" width="100" height="60" as="geometry" />
        </mxCell>
        <mxCell id="77e6c97f196da883-5" value="Patient Journey" style="swimlane;html=1;startSize=20;" parent="77e6c97f196da883-1" vertex="1">
          <mxGeometry x="480" y="20" width="160" height="730" as="geometry" />
        </mxCell>
        <mxCell id="77e6c97f196da883-6" value="Lane 5" style="swimlane;html=1;startSize=20;" parent="77e6c97f196da883-1" vertex="1">
          <mxGeometry x="640" y="20" width="160" height="730" as="geometry" />
        </mxCell>
        <mxCell id="77e6c97f196da883-7" value="Lane 6" style="swimlane;html=1;startSize=20;" parent="77e6c97f196da883-1" vertex="1">
          <mxGeometry x="800" y="20" width="160" height="730" as="geometry" />
        </mxCell>
        <mxCell id="jQUbzYPPH5g8hpw0QfmZ-17" value="" style="endArrow=classic;html=1;exitX=1;exitY=0.75;exitDx=0;exitDy=0;entryX=0;entryY=0.5;entryDx=0;entryDy=0;" edge="1" parent="77e6c97f196da883-1" source="77e6c97f196da883-8" target="jQUbzYPPH5g8hpw0QfmZ-16">
          <mxGeometry width="50" height="50" relative="1" as="geometry">
            <mxPoint x="450" y="270" as="sourcePoint" />
            <mxPoint x="500" y="220" as="targetPoint" />
          </mxGeometry>
        </mxCell>
        <mxCell id="jQUbzYPPH5g8hpw0QfmZ-19" value="" style="endArrow=classic;html=1;entryX=0;entryY=0.5;entryDx=0;entryDy=0;" edge="1" parent="77e6c97f196da883-1" target="jQUbzYPPH5g8hpw0QfmZ-18">
          <mxGeometry width="50" height="50" relative="1" as="geometry">
            <mxPoint x="110" y="145" as="sourcePoint" />
            <mxPoint x="500" y="180" as="targetPoint" />
          </mxGeometry>
        </mxCell>
        <mxCell id="jQUbzYPPH5g8hpw0QfmZ-67" value="" style="endArrow=classic;html=1;exitX=1;exitY=0.5;exitDx=0;exitDy=0;entryX=0;entryY=0.5;entryDx=0;entryDy=0;" edge="1" parent="77e6c97f196da883-1" source="jQUbzYPPH5g8hpw0QfmZ-18" target="jQUbzYPPH5g8hpw0QfmZ-64">
          <mxGeometry width="50" height="50" relative="1" as="geometry">
            <mxPoint x="450" y="280" as="sourcePoint" />
            <mxPoint x="500" y="230" as="targetPoint" />
          </mxGeometry>
        </mxCell>
        <mxCell id="jQUbzYPPH5g8hpw0QfmZ-68" value="" style="endArrow=classic;html=1;entryX=0;entryY=0.5;entryDx=0;entryDy=0;exitX=0.821;exitY=1.006;exitDx=0;exitDy=0;exitPerimeter=0;" edge="1" parent="77e6c97f196da883-1" source="jQUbzYPPH5g8hpw0QfmZ-18" target="jQUbzYPPH5g8hpw0QfmZ-20">
          <mxGeometry width="50" height="50" relative="1" as="geometry">
            <mxPoint x="290" y="310" as="sourcePoint" />
            <mxPoint x="500" y="230" as="targetPoint" />
          </mxGeometry>
        </mxCell>
        <mxCell id="jQUbzYPPH5g8hpw0QfmZ-69" value="" style="endArrow=classic;html=1;exitX=0.5;exitY=1;exitDx=0;exitDy=0;entryX=0;entryY=0.5;entryDx=0;entryDy=0;" edge="1" parent="77e6c97f196da883-1" source="jQUbzYPPH5g8hpw0QfmZ-18" target="jQUbzYPPH5g8hpw0QfmZ-65">
          <mxGeometry width="50" height="50" relative="1" as="geometry">
            <mxPoint x="450" y="280" as="sourcePoint" />
            <mxPoint x="500" y="230" as="targetPoint" />
          </mxGeometry>
        </mxCell>
        <mxCell id="jQUbzYPPH5g8hpw0QfmZ-14" value="&lt;font style=&quot;font-size: 15px&quot;&gt;Contact Us&lt;br&gt;&lt;/font&gt;" style="rounded=1;whiteSpace=wrap;html=1;shadow=0;labelBackgroundColor=none;strokeWidth=1;fontFamily=Verdana;fontSize=8;align=center;" vertex="1" parent="1">
          <mxGeometry x="90" y="680" width="100" height="60" as="geometry" />
        </mxCell>
      </root>
    </mxGraphModel>
  </diagram>
</mxfile>
